<?xml version="1.0"?>
<!DOCTYPE svg PUBLIC "-//W3C//DTD SVG 1.1//EN" "http://www.w3.org/Graphics/SVG/1.1/DTD/svg11.dtd">
<svg version="1.1" id="Capa_1" xmlns="http://www.w3.org/2000/svg" xmlns:xlink="http://www.w3.org/1999/xlink" x="0px" y="0px"
	 width="26.361px" height="26.362px" viewBox="0 0 26.361 26.362" style="enable-background:new 0 0 26.361 26.362;"
	 xml:space="preserve">
<g>
	<path d="M24.362,0H2C0.896,0,0,0.896,0,2v22.36c0,1.104,0.896,2,2,2h22.361c1.104,0,2-0.896,2-2V2C26.362,0.896,25.467,0,24.362,0z
		 M18.016,15.182H8.348c-1.104,0-2-0.896-2-2c0-1.104,0.896-2,2-2h9.667c1.104,0,2,0.896,2,2S19.119,15.182,18.016,15.182z"/>
</g>
</svg>
