<?xml version="1.0" encoding="UTF-8" standalone="no"?>
<svg
   height="32px"
   version="1.1"
   viewBox="0 0 32 32"
   width="32px"
   id="svg1"
   sodipodi:docname="boxRecurse.svg"
   inkscape:version="1.4 (86a8ad7, 2024-10-11)"
   xmlns:inkscape="http://www.inkscape.org/namespaces/inkscape"
   xmlns:sodipodi="http://sodipodi.sourceforge.net/DTD/sodipodi-0.dtd"
   xmlns="http://www.w3.org/2000/svg"
   xmlns:svg="http://www.w3.org/2000/svg">
  <sodipodi:namedview
     id="namedview1"
     pagecolor="#ffffff"
     bordercolor="#999999"
     borderopacity="1"
     inkscape:showpageshadow="0"
     inkscape:pageopacity="0"
     inkscape:pagecheckerboard="0"
     inkscape:deskcolor="#d1d1d1"
     inkscape:zoom="28.359375"
     inkscape:cx="14.668871"
     inkscape:cy="21.05124"
     inkscape:window-width="1916"
     inkscape:window-height="2041"
     inkscape:window-x="-9"
     inkscape:window-y="0"
     inkscape:window-maximized="0"
     inkscape:current-layer="svg1" />
  <title
     id="title1" />
  <desc
     id="desc1" />
  <defs
     id="defs1" />
  <g
     fill="none"
     fill-rule="evenodd"
     id="Page-1"
     stroke="none"
     stroke-width="1"
     style="fill:#000000;fill-opacity:1">
    <g
       fill="#929292"
       id="icon-142-box"
       style="fill:#000000;fill-opacity:1">
      <path
         d="M29,11 L29,14 L29,14 L4,14 L4,11 L29,11 L29,11 Z M4,15 L4,30 L29,30 L29,15 L4,15 L4,15 L4,15 Z M9,2 L4,10 L29,10 L24,2 L9,2 L9,2 Z M13.9973917,20 C12.8942627,20 12,20.8877296 12,22 C12,23.1045695 12.8958578,24 13.9973917,24 L19.0026083,24 C20.1057373,24 21,23.1122704 21,22 C21,20.8954305 20.1041422,20 19.0026083,20 L13.9973917,20 L13.9973917,20 Z"
         id="box"
         style="fill:#000000;fill-opacity:1" />
    </g>
  </g>
</svg>
